<svg width="2776" height="610" viewBox="0 0 2776 610" fill="none" xmlns="http://www.w3.org/2000/svg">
<rect y="29.5" width="590" height="551" rx="54" fill="#4F46E5"/>
<path fill-rule="evenodd" clip-rule="evenodd" d="M302.037 181.897C302.037 151.302 330.392 126.5 365.37 126.5C400.349 126.5 428.704 151.302 428.704 181.897C428.704 202.378 415.996 220.263 397.102 229.85L416.867 299.001C418.451 298.898 420.052 298.845 421.667 298.845C456.645 298.845 485 323.646 485 354.241C485 384.836 456.645 409.638 421.667 409.638C399.631 409.638 380.223 399.795 368.879 384.86L286.972 418.292C287.624 421.477 287.963 424.755 287.963 428.103C287.963 458.698 259.608 483.5 224.63 483.5C189.652 483.5 161.296 458.698 161.296 428.103C161.296 397.509 189.652 372.707 224.63 372.707C245.738 372.707 264.434 381.739 275.942 395.625L358.912 361.758C358.53 359.301 358.333 356.791 358.333 354.241C358.333 333.761 371.041 315.875 389.935 306.289L370.17 237.136C368.585 237.24 366.985 237.293 365.37 237.293C340.891 237.293 319.655 225.145 309.113 207.366L231.471 239.058C231.601 240.506 231.667 241.971 231.667 243.448C231.667 274.043 203.311 298.845 168.333 298.845C133.355 298.845 105 274.043 105 243.448C105 212.854 133.355 188.052 168.333 188.052C191.596 188.052 211.929 199.022 222.941 215.37L302.051 183.078C302.041 182.686 302.037 182.291 302.037 181.897ZM365.37 151.121C345.938 151.121 330.185 164.9 330.185 181.897C330.185 198.894 345.938 212.672 365.37 212.672C384.802 212.672 400.556 198.894 400.556 181.897C400.556 164.9 384.802 151.121 365.37 151.121ZM168.333 212.672C148.901 212.672 133.148 226.451 133.148 243.448C133.148 260.445 148.901 274.224 168.333 274.224C187.766 274.224 203.519 260.445 203.519 243.448C203.519 226.451 187.766 212.672 168.333 212.672ZM386.481 354.241C386.481 337.244 402.235 323.466 421.667 323.466C441.099 323.466 456.852 337.244 456.852 354.241C456.852 371.238 441.099 385.017 421.667 385.017C402.235 385.017 386.481 371.238 386.481 354.241ZM224.63 397.328C205.198 397.328 189.444 411.107 189.444 428.103C189.444 445.1 205.198 458.879 224.63 458.879C244.062 458.879 259.815 445.1 259.815 428.103C259.815 411.107 244.062 397.328 224.63 397.328Z" fill="#F3AF48"/>
<path d="M746.053 489.22C715.531 489.22 680.18 483.527 640 472.14C642.318 432.287 644.829 402.803 647.534 383.69L680.567 376.98L717.077 417.85C729.826 421.917 744.121 423.95 759.962 423.95C768.848 423.95 775.802 423.34 780.824 422.12C781.983 418.867 782.563 414.393 782.563 408.7C782.563 403.82 781.404 399.753 779.086 396.5C777.154 393.247 772.518 389.383 765.177 384.91C757.837 380.437 745.087 373.523 726.929 364.17C704.134 351.563 686.748 340.38 674.771 330.62C662.795 320.453 654.102 310.083 648.693 299.51C643.67 288.937 641.159 276.33 641.159 261.69C641.159 229.157 652.556 203.333 675.351 184.22C698.532 165.107 729.826 155.55 769.234 155.55C785.461 155.55 802.46 157.583 820.232 161.65C838.391 165.31 854.617 170.393 868.912 176.9C868.912 203.333 867.174 232.817 863.696 265.35L833.561 270.23L794.733 226.31C784.688 223.057 770.007 221.43 750.689 221.43C747.598 221.43 741.417 221.837 732.144 222.65C730.985 225.09 730.406 228.953 730.406 234.24C730.406 239.933 731.951 245.017 735.042 249.49C738.133 253.557 743.542 258.233 751.269 263.52C759.382 268.4 772.132 275.517 789.517 284.87C815.016 297.883 834.141 309.27 846.89 319.03C860.026 328.383 869.105 337.94 874.128 347.7C879.537 357.46 882.241 369.253 882.241 383.08C882.241 416.427 870.071 442.453 845.731 461.16C821.777 479.867 788.551 489.22 746.053 489.22Z" fill="#4F46E5"/>
<path d="M940.873 420.9L976.803 409.92V117.73C976.803 108.783 976.224 103.09 975.065 100.65C973.906 97.8033 970.815 94.7533 965.792 91.5L940.293 77.47L942.032 31.11L959.997 28.06C1011 18.3 1046.73 13.0133 1067.21 12.2C1070.69 21.96 1073.2 32.5333 1074.74 43.92V292.19L1139.07 226.31C1141 224.277 1141.97 222.04 1141.97 219.6C1141.97 217.567 1141.39 215.94 1140.23 214.72L1124 193.37L1130.38 159.82H1259.03C1262.51 173.24 1264.83 187.677 1265.99 203.13L1169.78 289.75L1281.63 452.01V478.85H1179.64L1074.74 320.25V389.79C1074.74 398.33 1075.32 404.023 1076.48 406.87C1077.64 409.717 1080.73 412.767 1085.75 416.02L1114.15 433.1L1111.83 478.85H943.77L940.873 420.9Z" fill="#4F46E5"/>
<path d="M1364.01 27.45L1462.53 0L1486.29 92.72L1388.35 120.78L1364.01 27.45ZM1339.67 422.73L1380.23 409.92V261.69C1380.23 252.743 1379.46 247.05 1377.92 244.61C1376.76 241.763 1373.47 238.713 1368.06 235.46L1342.56 220.82L1345.46 175.07C1377.53 168.563 1402.26 163.887 1419.64 161.04C1437.41 157.787 1453.64 155.957 1468.32 155.55C1473.34 173.037 1476.43 186.05 1477.59 194.59V389.79C1477.59 398.33 1478.17 404.023 1479.33 406.87C1480.49 409.717 1483.78 412.767 1489.18 416.02L1517.58 433.1L1515.26 478.85H1341.41L1339.67 422.73Z" fill="#4F46E5"/>
<path d="M1585.04 243.39C1580.79 232.41 1577.89 225.293 1576.34 222.04C1574.8 218.787 1571.9 214.313 1567.65 208.62L1557.8 195.2L1560.7 159.82H1707.32L1713.11 211.67L1681.24 219.6L1720.65 367.83L1778.02 164.7L1837.71 156.16L1903.78 373.32L1940.86 233.02C1941.64 230.58 1942.02 228.75 1942.02 227.53C1942.02 223.87 1940.29 221.43 1936.81 220.21L1908.99 208.01L1914.79 159.82H2024.9L2030.69 207.4L1931.01 481.9L1847.56 488.61L1799.46 319.03L1746.72 481.9L1663.27 488.61L1585.04 243.39Z" fill="#4F46E5"/>
<path d="M2182.83 486.78C2156.56 486.78 2135.5 479.257 2119.66 464.21C2103.82 448.757 2095.9 429.033 2095.9 405.04C2095.9 372.913 2111.16 347.7 2141.68 329.4C2172.59 311.1 2217.41 300.73 2276.13 298.29C2276.13 279.177 2274.59 265.147 2271.5 256.2C2268.79 246.847 2263.58 240.543 2255.85 237.29C2248.51 233.63 2237.11 231.8 2221.66 231.8C2205.82 231.8 2194.61 232.41 2188.05 233.63L2164.28 283.04L2121.4 279.99C2114.83 247.457 2110.2 213.703 2107.49 178.73C2129.13 171.003 2152.69 164.903 2178.19 160.43C2204.08 155.957 2228.23 153.72 2250.63 153.72C2291.59 153.72 2320.95 162.26 2338.72 179.34C2356.49 196.013 2365.38 223.87 2365.38 262.91V390.4C2365.38 397.72 2365.96 402.803 2367.12 405.65C2368.66 408.497 2371.75 411.343 2376.39 414.19L2399.57 428.22L2397.25 466.04C2352.44 477.02 2317.09 483.12 2291.2 484.34C2290.43 481.9 2289.27 477.63 2287.72 471.53C2286.18 465.023 2284.83 458.923 2283.67 453.23C2268.6 463.397 2251.99 471.53 2233.83 477.63C2216.06 483.73 2199.06 486.78 2182.83 486.78ZM2221.66 417.85C2237.11 417.85 2255.85 412.36 2277.87 401.38L2275.55 355.02C2266.28 354.207 2260.1 353.8 2257.01 353.8C2246.58 353.8 2234.41 355.02 2220.5 357.46C2206.59 359.493 2195.58 361.933 2187.47 364.78C2186.31 370.067 2185.73 374.947 2185.73 379.42C2185.73 391.62 2188.82 401.177 2195 408.09C2201.57 414.597 2210.45 417.85 2221.66 417.85Z" fill="#4F46E5"/>
<path d="M2448.57 552.05L2484.5 541.68V261.69C2484.5 252.743 2483.92 247.05 2482.76 244.61C2481.6 241.763 2478.32 238.713 2472.91 235.46L2446.83 220.82L2449.73 175.07C2451.66 174.663 2453.59 174.257 2455.52 173.85C2457.45 173.443 2459.58 173.037 2461.9 172.63C2480.06 168.97 2499.18 165.513 2519.27 162.26C2539.75 158.6 2556.55 156.363 2569.69 155.55C2573.17 164.09 2575.48 173.85 2576.64 184.83C2588.62 174.663 2601.37 166.937 2614.89 161.65C2628.8 156.363 2642.52 153.72 2656.04 153.72C2694.67 153.72 2724.23 168.157 2744.71 197.03C2765.57 225.497 2776 266.163 2776 319.03C2776 373.93 2761.71 416.02 2733.12 445.3C2704.53 474.173 2663.19 488.61 2609.1 488.61C2603.3 488.61 2594.22 488.203 2581.86 487.39V520.94C2581.86 529.887 2582.44 535.783 2583.6 538.63C2584.76 541.477 2588.04 544.323 2593.45 547.17L2627.64 567.3L2625.32 610H2451.47L2448.57 552.05ZM2624.16 412.97C2642.32 412.97 2657 410.327 2668.21 405.04C2671.3 394.873 2673.81 382.673 2675.74 368.44C2678.06 353.8 2679.22 340.177 2679.22 327.57C2679.22 296.257 2674 272.06 2663.57 254.98C2653.53 237.9 2639.43 229.36 2621.27 229.36C2610.06 229.36 2596.93 232.817 2581.86 239.73V405.65C2593.06 410.53 2607.17 412.97 2624.16 412.97Z" fill="#4F46E5"/>
</svg>
